<mxfile host="app.diagrams.net" modified="2024-04-02T08:48:17.279Z" agent="Mozilla/5.0 (Windows NT 10.0; Win64; x64) AppleWebKit/537.36 (KHTML, like Gecko) Chrome/122.0.0.0 Safari/537.36" etag="YyJ64Itn0h8gTVTxwtiH" version="24.0.7" type="device">
  <diagram name="Page-1" id="buSswvV3_XLnzjQ-Q5GE">
    <mxGraphModel dx="1194" dy="592" grid="1" gridSize="10" guides="1" tooltips="1" connect="1" arrows="1" fold="1" page="1" pageScale="1" pageWidth="827" pageHeight="1169" math="0" shadow="0">
      <root>
        <mxCell id="0" />
        <mxCell id="1" parent="0" />
        <object label="Admin" Admin="" id="5MGxNecjePFGgQzcU7vy-1">
          <mxCell style="shape=umlActor;verticalLabelPosition=bottom;verticalAlign=top;html=1;outlineConnect=0;fontFamily=Helvetica;" vertex="1" parent="1">
            <mxGeometry x="60" y="590" width="30" height="60" as="geometry" />
          </mxCell>
        </object>
        <mxCell id="5MGxNecjePFGgQzcU7vy-5" value="Internaute" style="shape=umlActor;verticalLabelPosition=bottom;verticalAlign=top;html=1;outlineConnect=0;" vertex="1" parent="1">
          <mxGeometry x="60" y="200" width="30" height="60" as="geometry" />
        </mxCell>
        <mxCell id="5MGxNecjePFGgQzcU7vy-8" value="" style="endArrow=classic;html=1;rounded=0;exitX=0.5;exitY=0;exitDx=0;exitDy=0;exitPerimeter=0;" edge="1" parent="1" source="5MGxNecjePFGgQzcU7vy-1" target="5MGxNecjePFGgQzcU7vy-5">
          <mxGeometry width="50" height="50" relative="1" as="geometry">
            <mxPoint x="500" y="460" as="sourcePoint" />
            <mxPoint x="550" y="410" as="targetPoint" />
          </mxGeometry>
        </mxCell>
        <mxCell id="5MGxNecjePFGgQzcU7vy-10" value="Créer un compte" style="ellipse;whiteSpace=wrap;html=1;" vertex="1" parent="1">
          <mxGeometry x="235" y="80" width="140" height="80" as="geometry" />
        </mxCell>
        <mxCell id="5MGxNecjePFGgQzcU7vy-12" value="Chercher des animaux" style="ellipse;whiteSpace=wrap;html=1;" vertex="1" parent="1">
          <mxGeometry x="230" y="180" width="150" height="80" as="geometry" />
        </mxCell>
        <mxCell id="5MGxNecjePFGgQzcU7vy-16" value="Réserver une ou plusieurs place" style="ellipse;whiteSpace=wrap;html=1;" vertex="1" parent="1">
          <mxGeometry x="240" y="280" width="130" height="80" as="geometry" />
        </mxCell>
        <mxCell id="5MGxNecjePFGgQzcU7vy-18" value="Réserver un ou plusieurs spectacle" style="ellipse;whiteSpace=wrap;html=1;" vertex="1" parent="1">
          <mxGeometry x="440" y="280" width="120" height="80" as="geometry" />
        </mxCell>
        <mxCell id="5MGxNecjePFGgQzcU7vy-19" value="" style="endArrow=none;html=1;rounded=0;exitX=0;exitY=0.5;exitDx=0;exitDy=0;entryX=1;entryY=0.3333333333333333;entryDx=0;entryDy=0;entryPerimeter=0;" edge="1" parent="1" source="5MGxNecjePFGgQzcU7vy-12" target="5MGxNecjePFGgQzcU7vy-5">
          <mxGeometry width="50" height="50" relative="1" as="geometry">
            <mxPoint x="500" y="360" as="sourcePoint" />
            <mxPoint x="550" y="310" as="targetPoint" />
          </mxGeometry>
        </mxCell>
        <mxCell id="5MGxNecjePFGgQzcU7vy-20" value="" style="endArrow=none;html=1;rounded=0;exitX=0.5;exitY=0;exitDx=0;exitDy=0;exitPerimeter=0;entryX=0;entryY=0.5;entryDx=0;entryDy=0;" edge="1" parent="1" source="5MGxNecjePFGgQzcU7vy-5" target="5MGxNecjePFGgQzcU7vy-10">
          <mxGeometry width="50" height="50" relative="1" as="geometry">
            <mxPoint x="500" y="360" as="sourcePoint" />
            <mxPoint x="550" y="310" as="targetPoint" />
          </mxGeometry>
        </mxCell>
        <mxCell id="5MGxNecjePFGgQzcU7vy-22" value="" style="endArrow=none;html=1;rounded=0;entryX=0;entryY=0.5;entryDx=0;entryDy=0;exitX=1;exitY=1;exitDx=0;exitDy=0;exitPerimeter=0;" edge="1" parent="1" source="5MGxNecjePFGgQzcU7vy-5" target="5MGxNecjePFGgQzcU7vy-16">
          <mxGeometry width="50" height="50" relative="1" as="geometry">
            <mxPoint x="610" y="200" as="sourcePoint" />
            <mxPoint x="550" y="10" as="targetPoint" />
          </mxGeometry>
        </mxCell>
        <mxCell id="5MGxNecjePFGgQzcU7vy-23" value="" style="endArrow=none;html=1;rounded=0;entryX=1;entryY=0.5;entryDx=0;entryDy=0;exitX=0;exitY=0.5;exitDx=0;exitDy=0;" edge="1" parent="1" source="5MGxNecjePFGgQzcU7vy-18" target="5MGxNecjePFGgQzcU7vy-16">
          <mxGeometry width="50" height="50" relative="1" as="geometry">
            <mxPoint x="500" y="60" as="sourcePoint" />
            <mxPoint x="550" y="10" as="targetPoint" />
          </mxGeometry>
        </mxCell>
        <mxCell id="5MGxNecjePFGgQzcU7vy-25" value="Supprimer un animal" style="ellipse;whiteSpace=wrap;html=1;" vertex="1" parent="1">
          <mxGeometry x="280" y="680" width="120" height="80" as="geometry" />
        </mxCell>
        <mxCell id="5MGxNecjePFGgQzcU7vy-26" value="Modifier un animal" style="ellipse;whiteSpace=wrap;html=1;" vertex="1" parent="1">
          <mxGeometry x="280" y="570" width="120" height="80" as="geometry" />
        </mxCell>
        <mxCell id="5MGxNecjePFGgQzcU7vy-27" value="Créer un animal" style="ellipse;whiteSpace=wrap;html=1;" vertex="1" parent="1">
          <mxGeometry x="280" y="460" width="120" height="80" as="geometry" />
        </mxCell>
        <mxCell id="5MGxNecjePFGgQzcU7vy-28" value="" style="endArrow=none;html=1;rounded=0;exitX=0.75;exitY=0.1;exitDx=0;exitDy=0;exitPerimeter=0;entryX=0;entryY=0.5;entryDx=0;entryDy=0;" edge="1" parent="1" source="5MGxNecjePFGgQzcU7vy-1" target="5MGxNecjePFGgQzcU7vy-27">
          <mxGeometry width="50" height="50" relative="1" as="geometry">
            <mxPoint x="470" y="560" as="sourcePoint" />
            <mxPoint x="520" y="510" as="targetPoint" />
          </mxGeometry>
        </mxCell>
        <mxCell id="5MGxNecjePFGgQzcU7vy-29" value="" style="endArrow=none;html=1;rounded=0;exitX=1;exitY=0.3333333333333333;exitDx=0;exitDy=0;exitPerimeter=0;entryX=0;entryY=0.5;entryDx=0;entryDy=0;" edge="1" parent="1" source="5MGxNecjePFGgQzcU7vy-1" target="5MGxNecjePFGgQzcU7vy-26">
          <mxGeometry width="50" height="50" relative="1" as="geometry">
            <mxPoint x="470" y="560" as="sourcePoint" />
            <mxPoint x="520" y="510" as="targetPoint" />
          </mxGeometry>
        </mxCell>
        <mxCell id="5MGxNecjePFGgQzcU7vy-30" value="" style="endArrow=none;html=1;rounded=0;exitX=1;exitY=1;exitDx=0;exitDy=0;exitPerimeter=0;entryX=0;entryY=0.5;entryDx=0;entryDy=0;" edge="1" parent="1" source="5MGxNecjePFGgQzcU7vy-1" target="5MGxNecjePFGgQzcU7vy-25">
          <mxGeometry width="50" height="50" relative="1" as="geometry">
            <mxPoint x="470" y="560" as="sourcePoint" />
            <mxPoint x="520" y="510" as="targetPoint" />
          </mxGeometry>
        </mxCell>
        <mxCell id="5MGxNecjePFGgQzcU7vy-31" value="Consulter les informations des animaux" style="ellipse;whiteSpace=wrap;html=1;" vertex="1" parent="1">
          <mxGeometry x="440" y="180" width="120" height="80" as="geometry" />
        </mxCell>
        <mxCell id="5MGxNecjePFGgQzcU7vy-32" value="Consulter ses réservations" style="ellipse;whiteSpace=wrap;html=1;" vertex="1" parent="1">
          <mxGeometry x="630" y="280" width="120" height="80" as="geometry" />
        </mxCell>
        <mxCell id="5MGxNecjePFGgQzcU7vy-33" value="" style="endArrow=none;html=1;rounded=0;exitX=1;exitY=0.5;exitDx=0;exitDy=0;entryX=0;entryY=0.5;entryDx=0;entryDy=0;" edge="1" parent="1" source="5MGxNecjePFGgQzcU7vy-12" target="5MGxNecjePFGgQzcU7vy-31">
          <mxGeometry width="50" height="50" relative="1" as="geometry">
            <mxPoint x="470" y="240" as="sourcePoint" />
            <mxPoint x="520" y="190" as="targetPoint" />
          </mxGeometry>
        </mxCell>
        <mxCell id="5MGxNecjePFGgQzcU7vy-34" value="" style="endArrow=none;html=1;rounded=0;exitX=1;exitY=0.5;exitDx=0;exitDy=0;entryX=0;entryY=0.5;entryDx=0;entryDy=0;" edge="1" parent="1" source="5MGxNecjePFGgQzcU7vy-18" target="5MGxNecjePFGgQzcU7vy-32">
          <mxGeometry width="50" height="50" relative="1" as="geometry">
            <mxPoint x="470" y="240" as="sourcePoint" />
            <mxPoint x="520" y="190" as="targetPoint" />
          </mxGeometry>
        </mxCell>
      </root>
    </mxGraphModel>
  </diagram>
</mxfile>
